PathFileType	4	(X/Y/Z)	RBDS017static.trc
DataRate	CameraRate	NumFrames	NumMarkers	Units	OrigDataRate	OrigDataStartFrame	OrigNumFrames
150.000000	150.000000	4	48	mm	150.000000	112	150
Frame#	Time	L.Ankle			L.Ankle.Medial			L.ASIS			L.GTR			L.Heel.Bottom			L.Heel.Lateral			L.Heel.Top			L.HF			L.Iliac.Crest			L.Knee			L.Knee.Medial			L.MT1			L.MT2			L.MT5			L.PSIS			L.Shank.Bottom.Lateral			L.Shank.Bottom.Medial			L.Shank.Top.Lateral			L.Shank.Top.Medial			L.Thigh.Bottom.Lateral			L.Thigh.Bottom.Medial			L.Thigh.Top.Lateral			L.Thigh.Top.Medial			L.TT			R.Ankle			R.Ankle.Medial			R.ASIS			R.GTR			R.Heel.Bottom			R.Heel.Lateral			R.Heel.Top			R.HF			R.Iliac.Crest			R.Knee			R.Knee.Medial			R.MT1			R.MT2			R.MT5			R.PSIS			R.Shank.Bottom.Lateral			R.Shank.Bottom.Medial			R.Shank.Top.Lateral			R.Shank.Top.Medial			R.Thigh.Bottom.Lateral			R.Thigh.Bottom.Medial			R.Thigh.Top.Lateral			R.Thigh.Top.Medial			R.TT			
		X1	Y1	Z1	X2	Y2	Z2	X3	Y3	Z3	X4	Y4	Z4	X5	Y5	Z5	X6	Y6	Z6	X7	Y7	Z7	X8	Y8	Z8	X9	Y9	Z9	X10	Y10	Z10	X11	Y11	Z11	X12	Y12	Z12	X13	Y13	Z13	X14	Y14	Z14	X15	Y15	Z15	X16	Y16	Z16	X17	Y17	Z17	X18	Y18	Z18	X19	Y19	Z19	X20	Y20	Z20	X21	Y21	Z21	X22	Y22	Z22	X23	Y23	Z23	X24	Y24	Z24	X25	Y25	Z25	X26	Y26	Z26	X27	Y27	Z27	X28	Y28	Z28	X29	Y29	Z29	X30	Y30	Z30	X31	Y31	Z31	X32	Y32	Z32	X33	Y33	Z33	X34	Y34	Z34	X35	Y35	Z35	X36	Y36	Z36	X37	Y37	Z37	X38	Y38	Z38	X39	Y39	Z39	X40	Y40	Z40	X41	Y41	Z41	X42	Y42	Z42	X43	Y43	Z43	X44	Y44	Z44	X45	Y45	Z45	X46	Y46	Z46	X47	Y47	Z47	X48	Y48	Z48	

113	0.7466666666666667	707.1231079101563	113.907356262207	1037.7412109375	734.3981323242188	124.926383972168	1120.543090820313	859.3645629882813	1078.58154296875	1088.619750976563	781.4063720703125	992.2068481445313	1038.383911132813	643.1173095703125	41.04656982421875	1078.21533203125	664.8071899414063	60.99601364135742	1042.387573242188	649.9305419921875	87.2523193359375	1080.2802734375	772.3746948242188	511.3675231933594	1047.867797851563	785.3956298828125	1170.114624023438	1051.040161132813	775.3595581054688	566.0055541992188	1055.022827148438	768.022705078125	551.7236328125	1175.054931640625	864.9004516601563	63.80919647216797	1123.92333984375	869.1828002929688	68.33949279785156	1074.8330078125	834.9087524414063	50.37118148803711	1013.886779785156	679.8358154296875	1137.383422851563	1174.794555664063	718.109619140625	209.1081237792969	1036.065063476563	675.7706298828125	210.4776611328125	1071.36865234375	715.9102783203125	289.5179443359375	1030.807373046875	674.5607299804688	291.3058776855469	1065.329711914063	786.3387451171875	694.8158569335938	1035.189697265625	720.8532104492188	686.1972045898438	1065.193115234375	765.65673828125	803.6465454101563	1031.651733398438	707.3097534179688	795.81787109375	1065.700927734375	826.1196899414063	482.1673889160156	1089.858764648438	710.5469360351563	109.8050384521484	1413.731079101563	732.2974853515625	122.5586776733398	1330.077026367188	848.8803100585938	1074.389526367188	1373.27197265625	773.6690063476563	986.7461547851563	1417.201293945313	641.3492431640625	43.52229309082031	1370.180419921875	666.8536376953125	65.193603515625	1409.651489257813	651.5775756835938	90.29293060302734	1370.478637695313	766.7637329101563	507.5793151855469	1399.567016601563	786.6983032226563	1160.24755859375	1409.805786132813	772.08935546875	563.7075805664063	1391.976440429688	777.23095703125	548.2782592773438	1271.88818359375	862.993896484375	65.45198059082031	1329.0947265625	872.552734375	70.0704345703125	1371.636596679688	830.908935546875	51.45893478393555	1442.259765625	678.2664184570313	1135.026123046875	1276.80029296875	712.4712524414063	208.4752502441406	1414.046752929688	675.1959228515625	212.7091522216797	1379.026489257813	714.6282348632813	293.2821044921875	1420.20654296875	673.8604125976563	293.4050598144531	1385.3994140625	768.7088623046875	689.4779052734375	1408.630859375	706.88037109375	682.50537109375	1368.563598632813	748.9417114257813	797.8408813476563	1412.70263671875	693.9378051757813	791.4605712890625	1370.654052734375	824.9435424804688	479.7913208007813	1357.838745117188	
114	0.7533333333333334	707.1154174804688	113.9089736938477	1037.742553710938	734.3994750976563	124.9217910766602	1120.5498046875	859.3521728515625	1078.590209960938	1088.611328125	781.4092407226563	992.2041015625	1038.386596679688	643.1200561523438	41.04023742675781	1078.215087890625	664.8114013671875	60.98453521728516	1042.386474609375	649.927734375	87.25164794921875	1080.26416015625	772.389892578125	511.3600769042969	1047.862182617188	785.3890380859375	1170.119995117188	1051.027099609375	775.3701782226563	566.0009155273438	1055.02099609375	768.0311889648438	551.72705078125	1175.051025390625	864.8927001953125	63.80234527587891	1123.926879882813	869.1807250976563	68.34309387207031	1074.838989257813	834.9016723632813	50.37268829345703	1013.885070800781	679.8252563476563	1137.374145507813	1174.77783203125	718.1171875	209.10888671875	1036.060180664063	675.7725830078125	210.4734954833984	1071.362060546875	715.9198608398438	289.5069274902344	1030.809936523438	674.5635986328125	291.3109130859375	1065.32470703125	786.3494262695313	694.8113403320313	1035.174438476563	720.8541259765625	686.1876220703125	1065.169677734375	765.6732788085938	803.6424560546875	1031.630249023438	707.3102416992188	795.81201171875	1065.668090820313	826.1311645507813	482.1726684570313	1089.853515625	710.5478515625	109.8058166503906	1413.732421875	732.281494140625	122.5635452270508	1330.076049804688	848.8529052734375	1074.394775390625	1373.259643554688	773.6663818359375	986.8034057617188	1417.02490234375	641.345458984375	43.52173614501953	1370.1689453125	666.856201171875	65.18778228759766	1409.647583007813	651.5878295898438	90.29233551025391	1370.485473632813	766.7719116210938	507.5746459960938	1399.557983398438	786.6544799804688	1160.26318359375	1409.792846679688	772.0888061523438	563.7220458984375	1391.9873046875	777.2644653320313	548.2892456054688	1271.893310546875	862.999267578125	65.45612335205078	1329.094604492188	872.5532836914063	70.06729125976563	1371.630615234375	830.906494140625	51.45973205566406	1442.268432617188	678.2366333007813	1135.019775390625	1276.78955078125	712.474853515625	208.4779052734375	1414.046752929688	675.1926879882813	212.7134246826172	1379.023681640625	714.6311645507813	293.2857971191406	1420.205688476563	673.8634033203125	293.4180297851563	1385.389038085938	768.6958618164063	689.4845581054688	1408.623779296875	706.8792114257813	682.498291015625	1368.548828125	748.9244384765625	797.828369140625	1412.693603515625	693.927734375	791.4420166015625	1370.644165039063	824.9478759765625	479.7958679199219	1357.836059570313	
115	0.76	707.1132202148438	113.9053726196289	1037.731567382813	734.405029296875	124.9227523803711	1120.542236328125	859.3512573242188	1078.582885742188	1088.613403320313	781.405029296875	992.198486328125	1038.379028320313	643.117431640625	41.04926300048828	1078.216186523438	664.8092041015625	60.9890251159668	1042.389526367188	649.9391479492188	87.25151824951172	1080.263793945313	772.412841796875	511.3522033691406	1047.857299804688	785.374267578125	1170.122314453125	1051.02490234375	775.3803100585938	565.9920043945313	1055.019897460938	768.0496826171875	551.7194213867188	1175.037353515625	864.892822265625	63.80684280395508	1123.919067382813	869.1784057617188	68.34000396728516	1074.837280273438	834.9053344726563	50.37176513671875	1013.889526367188	679.8099975585938	1137.37451171875	1174.765258789063	718.1134643554688	209.1080017089844	1036.051635742188	675.7775268554688	210.4673767089844	1071.361938476563	715.9320068359375	289.5095825195313	1030.804443359375	674.5684204101563	291.3049621582031	1065.3193359375	786.3707885742188	694.8084716796875	1035.160400390625	720.8668212890625	686.1787719726563	1065.134765625	765.6954345703125	803.6377563476563	1031.617309570313	707.3096313476563	795.80712890625	1065.649536132813	826.1356811523438	482.1646423339844	1089.854858398438	710.5536499023438	109.8038024902344	1413.73095703125	732.2833862304688	122.561149597168	1330.076293945313	848.8336791992188	1074.40185546875	1373.265014648438	773.6177978515625	986.7478637695313	1417.195068359375	641.347900390625	43.52043914794922	1370.176391601563	666.8627319335938	65.2000732421875	1409.657592773438	651.57763671875	90.29306030273438	1370.481567382813	766.7733154296875	507.5789489746094	1399.554931640625	786.6326904296875	1160.2548828125	1409.767578125	772.127685546875	563.7839965820313	1392.2109375	777.26123046875	548.2819213867188	1271.88818359375	862.9913330078125	65.45417022705078	1329.092163085938	872.5551147460938	70.06766510009766	1371.636474609375	830.9087524414063	51.45745468139648	1442.265869140625	678.2236328125	1135.008178710938	1276.7734375	712.4755859375	208.4819183349609	1414.049560546875	675.20166015625	212.7080230712891	1379.020141601563	714.6344604492188	293.2790222167969	1420.207641601563	673.8663330078125	293.4080810546875	1385.385375976563	768.6925659179688	689.4790649414063	1408.625610351563	706.8776245117188	682.490478515625	1368.53369140625	748.9009399414063	797.83056640625	1412.682739257813	693.9177856445313	791.4310913085938	1370.62548828125	824.9519653320313	479.8028869628906	1357.8291015625	
116	0.7666666666666667	707.113525390625	113.9038543701172	1037.741943359375	734.4102783203125	124.9204406738281	1120.541015625	859.3287963867188	1078.590942382813	1088.603515625	781.3995361328125	992.2047119140625	1038.371459960938	643.1162719726563	41.04329299926758	1078.218017578125	664.7960815429688	60.98894500732422	1042.397583007813	649.937744140625	87.25585174560547	1080.26513671875	772.4215698242188	511.3501281738281	1047.852416992188	785.3717041015625	1170.1162109375	1051.024536132813	775.3849487304688	565.9798583984375	1055.017578125	768.034423828125	551.7213745117188	1175.037231445313	864.8848876953125	63.81412887573242	1123.929931640625	869.1793823242188	68.34425354003906	1074.836791992188	834.9124755859375	50.37288665771484	1013.891662597656	679.7980346679688	1137.370361328125	1174.75341796875	718.1223754882813	209.1034240722656	1036.050048828125	675.7845458984375	210.4682159423828	1071.353271484375	715.942626953125	289.4970397949219	1030.794311523438	674.5656127929688	291.306884765625	1065.30078125	786.3858642578125	694.8008422851563	1035.155517578125	720.8749389648438	686.1694946289063	1065.106079101563	765.6979370117188	803.633056640625	1031.58837890625	707.3116455078125	795.8055419921875	1065.61328125	826.1358032226563	482.1716918945313	1089.842407226563	710.549072265625	109.8062057495117	1413.720581054688	732.2969360351563	122.5614471435547	1330.068237304688	848.816650390625	1074.40234375	1373.255493164063	773.5914306640625	986.7431640625	1417.1875	641.3475952148438	43.51614761352539	1370.165771484375	666.858642578125	65.189453125	1409.656616210938	651.5824584960938	90.29055786132813	1370.478881835938	766.768310546875	507.5780029296875	1399.551025390625	786.600341796875	1160.263061523438	1409.758178710938	772.0814819335938	563.7067260742188	1391.979370117188	777.2713623046875	548.2860107421875	1271.882202148438	862.9951782226563	65.45174407958984	1329.09912109375	872.5572509765625	70.06895446777344	1371.638305664063	830.9008178710938	51.45354461669922	1442.263427734375	678.2091674804688	1135.01171875	1276.760131835938	712.479248046875	208.4737396240234	1414.047607421875	675.2083129882813	212.7039489746094	1379.021240234375	714.6339111328125	293.2798156738281	1420.201171875	673.869140625	293.4053955078125	1385.385131835938	768.672607421875	689.4786987304688	1408.618041992188	706.880859375	682.4813842773438	1368.521606445313	748.892578125	797.8289184570313	1412.662963867188	693.91748046875	791.4243774414063	1370.61279296875	824.9527587890625	479.8001403808594	1357.83544921875	
